<svg width="15" height="15" viewBox="0 0 15 15" fill="none" xmlns="http://www.w3.org/2000/svg">
<path d="M14.5 1.25V6.25C14.5 6.6875 14.1562 7 13.75 7H8.75C8.3125 7 8 6.6875 8 6.25C8 5.84375 8.3125 5.5 8.75 5.5H11.875C10.9375 3.71875 9.0625 2.5 7 2.5C3.9375 2.5 1.5 4.96875 1.5 8C1.5 11.0625 3.9375 13.5 7 13.5C8.28125 13.5 9.53125 13.0625 10.5 12.25C10.8125 11.9688 11.2812 12.0312 11.5625 12.3438C11.8125 12.6562 11.7812 13.125 11.4688 13.4062C10.2188 14.4375 8.625 15 6.96875 15C3.125 15 0 11.875 0 8C0 4.15625 3.125 1.03125 6.96875 1.03125C9.46875 1.03125 11.75 2.375 13 4.4375V1.25C13 0.84375 13.3125 0.5 13.75 0.5C14.1562 0.5 14.5 0.84375 14.5 1.25Z" fill="white"/>
</svg>
