<svg width="21" height="24" viewBox="0 0 21 24" fill="none" xmlns="http://www.w3.org/2000/svg">
<path d="M8.88892 22.953L8.88892 0.261219C8.88892 0.117744 8.77128 0.000355999 8.62749 0.000355993L6.66669 0.000355907C6.5229 0.000355901 6.40526 0.117744 6.40526 0.261219L6.40526 19.9955L0.424839 15.2902C0.254904 15.1565 1.12887e-07 15.2771 1.03337e-07 15.4956L0 17.8597C-6.98414e-09 18.0194 0.0718956 18.1694 0.199347 18.2705L7.19611 23.7747C7.88238 24.3128 8.88892 23.8269 8.88892 22.953ZM15.5947 23.7389L15.5947 4.0046L20.5752 8.70991C20.7451 8.8436 21 8.72295 21 8.50448V6.14041C21 5.98063 20.9281 5.83064 20.8007 5.72955L14.8039 0.22535C14.1176 -0.312679 13.1111 0.173178 13.1111 1.04381L13.1111 23.7389C13.1111 23.8823 13.2287 23.9997 13.3725 23.9997H15.3333C15.4771 23.9997 15.5947 23.8823 15.5947 23.7389Z" fill="#FDFDFF"/>
</svg>
