<svg width="22" height="24" viewBox="0 0 22 24" fill="none" xmlns="http://www.w3.org/2000/svg">
<g opacity="0.5">
<path d="M11.9275 1.22044L19.9613 5.87305C20.0139 5.9197 20.0721 5.96133 20.1354 5.99685C20.4046 6.14801 20.6243 6.36388 20.7749 6.61967C20.9253 6.87523 21.0022 7.16276 21 7.45328L20.9999 7.45328V7.46095V16.2006C20.9999 16.2006 20.9999 16.2007 20.9999 16.2008C20.9998 16.4937 20.9193 16.783 20.7643 17.0391C20.6092 17.2954 20.3842 17.5102 20.1099 17.6583C20.092 17.668 20.0745 17.6781 20.0573 17.6888L11.836 22.7964C11.5805 22.9295 11.2932 23 11 23C10.7067 23 10.4195 22.9295 10.1639 22.7964L1.94259 17.6888C1.92539 17.6781 1.90788 17.668 1.89007 17.6583C1.61589 17.5103 1.39098 17.2956 1.23583 17.0394C1.08089 16.7836 1.00028 16.4945 1 16.2017V7.46119C1 7.46111 1 7.46103 1 7.46095C1.00012 7.16802 1.08065 6.87871 1.23561 6.6227C1.39077 6.36639 1.61576 6.15157 1.89007 6.00342C1.89876 5.99873 1.90737 5.99391 1.91592 5.98896L10.1522 1.22047C10.4227 1.07642 10.728 1 11.0398 1C11.3516 1 11.6569 1.07641 11.9275 1.22044Z" stroke="#FDFDFF" stroke-width="2" stroke-linecap="round" stroke-linejoin="round"/>
<path d="M11.0102 7C11.3051 7 11.5653 7.29297 11.5653 7.625V8.32813C11.5827 8.32813 11.6173 8.34766 11.6347 8.34766C11.8255 8.36719 12.3633 8.48438 12.5889 8.54297C12.8838 8.62109 13.0746 8.97266 13.0052 9.30469C12.9185 9.63672 12.6236 9.83203 12.3286 9.75391C12.1551 9.69531 11.6694 9.61719 11.4786 9.57813C10.9234 9.48047 10.4377 9.53906 10.108 9.67578C9.79577 9.8125 9.65698 10.0078 9.62229 10.2227C9.58759 10.4375 9.62229 10.5547 9.65698 10.6328C9.69168 10.7109 9.74372 10.7891 9.88251 10.8867C10.1601 11.1016 10.5938 11.2383 11.1489 11.4141H11.201C11.6867 11.5703 12.2939 11.7656 12.745 12.0977C12.9879 12.2734 13.2134 12.5273 13.3522 12.8594C13.5083 13.2109 13.5257 13.6016 13.4736 14.0117C13.3522 14.7539 12.8838 15.2617 12.3286 15.5156C12.0858 15.6328 11.8255 15.6914 11.5653 15.7305V16.375C11.5653 16.7266 11.3051 17 11.0102 17C10.6979 17 10.455 16.7266 10.455 16.375V15.7109C10.4377 15.7109 10.4377 15.6914 10.4203 15.6914C10.004 15.6328 9.31002 15.418 8.84161 15.1836C8.54669 15.0469 8.42525 14.6758 8.54669 14.3633C8.66813 14.0508 8.99774 13.8945 9.27532 14.0508C9.63963 14.2266 10.2468 14.4023 10.5938 14.4609C11.1489 14.5586 11.6 14.5 11.9123 14.3633C12.2072 14.2266 12.3286 14.0313 12.3807 13.7969C12.4154 13.582 12.3807 13.4648 12.346 13.3867C12.3113 13.3086 12.2592 13.2305 12.1205 13.1328C11.8429 12.918 11.4092 12.7813 10.854 12.6055H10.802C10.3162 12.4492 9.70903 12.2539 9.25797 11.9219C9.01509 11.7461 8.78956 11.4922 8.65078 11.1602C8.49464 10.8086 8.47729 10.418 8.52934 9.98828C8.66813 9.24609 9.15388 8.75781 9.70903 8.50391C9.93456 8.40625 10.1948 8.34766 10.455 8.30859V7.625C10.455 7.29297 10.6979 7 11.0102 7Z" fill="#FDFDFF" stroke="#FDFDFF" stroke-width="0.5"/>
</g>
</svg>
