<svg width="24" height="26" viewBox="0 0 24 26" fill="none" xmlns="http://www.w3.org/2000/svg">
<path d="M18.3255 5.69111L20.1061 5.32673C20.8651 5.17141 21.6384 5.51921 22.0258 6.19019L22.9609 7.80981C23.3483 8.48079 23.2628 9.32437 22.7488 9.90406L21.5441 11.2626C21.6482 11.8318 21.701 12.4126 21.701 13C21.701 13.5874 21.6482 14.1682 21.5441 14.7374L22.7488 16.0959C23.2628 16.6756 23.3483 17.5192 22.9609 18.1902L22.0258 19.8098C21.6384 20.4808 20.8651 20.8286 20.1061 20.6733L18.3255 20.3089C17.4377 21.0656 16.419 21.6561 15.3176 22.0477L14.7437 23.7692C14.4987 24.5042 13.8109 25 13.0361 25H11.1659C10.3912 25 9.70331 24.5042 9.45831 23.7692L8.88447 22.0477C7.78304 21.6561 6.76436 21.0656 5.87659 20.3089L4.09598 20.6733C3.33693 20.8286 2.56365 20.4808 2.17626 19.8098L1.24118 18.1902C0.853788 17.5192 0.939216 16.6756 1.45326 16.0959L2.65795 14.7374C2.55384 14.1682 2.50103 13.5874 2.50103 13C2.50103 12.4126 2.55384 11.8318 2.65795 11.2626L1.45326 9.90406C0.939216 9.32437 0.853788 8.48079 1.24118 7.80981L2.17626 6.19019C2.56365 5.51921 3.33693 5.17141 4.09598 5.32673L5.87659 5.69111C6.76436 4.93435 7.78304 4.34391 8.88447 3.9523L9.45831 2.23079C9.70331 1.49577 10.3912 1 11.1659 1H13.0361C13.8109 1 14.4987 1.49577 14.7437 2.23079L15.3176 3.9523C16.419 4.34391 17.4377 4.93435 18.3255 5.69111ZM14.6602 4.99679C14.4778 4.93851 14.3341 4.79666 14.2736 4.61498L13.6053 2.61026C13.5237 2.36526 13.2944 2.2 13.0361 2.2H11.1659C10.9077 2.2 10.6784 2.36526 10.5967 2.61026L9.92849 4.61498C9.86793 4.79666 9.72429 4.93851 9.54187 4.99679C8.3948 5.36325 7.3421 5.97392 6.45242 6.78274C6.31074 6.91154 6.1161 6.96499 5.92852 6.9266L3.8554 6.50237C3.60238 6.4506 3.34462 6.56653 3.2155 6.79019L2.28041 8.40981C2.15128 8.63347 2.17975 8.91466 2.3511 9.10789L3.75356 10.6895C3.88044 10.8325 3.93151 11.0275 3.89106 11.2144C3.76513 11.7964 3.70103 12.3939 3.70103 13C3.70103 13.6061 3.76513 14.2036 3.89106 14.7856C3.93151 14.9725 3.88044 15.1675 3.75356 15.3105L2.3511 16.8921C2.17975 17.0853 2.15128 17.3665 2.28041 17.5902L3.2155 19.2098C3.34462 19.4335 3.60238 19.5494 3.8554 19.4976L5.92852 19.0734C6.1161 19.035 6.31074 19.0885 6.45242 19.2173C7.3421 20.0261 8.3948 20.6367 9.54187 21.0032C9.72429 21.0615 9.86793 21.2033 9.92849 21.385L10.5967 23.3897C10.6784 23.6347 10.9077 23.8 11.1659 23.8H13.0361C13.2944 23.8 13.5237 23.6347 13.6053 23.3897L14.2736 21.385C14.3341 21.2033 14.4778 21.0615 14.6602 21.0032C15.8073 20.6367 16.86 20.0261 17.7496 19.2173C17.8913 19.0885 18.086 19.035 18.2735 19.0734L20.3467 19.4976C20.5997 19.5494 20.8574 19.4335 20.9866 19.2098L21.9216 17.5902C22.0508 17.3665 22.0223 17.0853 21.851 16.8921L20.4485 15.3105C20.3216 15.1675 20.2705 14.9725 20.311 14.7856C20.4369 14.2036 20.501 13.6061 20.501 13C20.501 12.3939 20.4369 11.7964 20.311 11.2144C20.2705 11.0275 20.3216 10.8325 20.4485 10.6895L21.851 9.10789C22.0223 8.91466 22.0508 8.63347 21.9216 8.40981L20.9866 6.79019C20.8574 6.56653 20.5997 6.4506 20.3467 6.50237L18.2735 6.9266C18.086 6.96499 17.8913 6.91154 17.7496 6.78274C16.86 5.97392 15.8073 5.36325 14.6602 4.99679ZM12.101 17.8C9.45006 17.8 7.30103 15.651 7.30103 13C7.30103 10.349 9.45006 8.2 12.101 8.2C14.752 8.2 16.901 10.349 16.901 13C16.901 15.651 14.752 17.8 12.101 17.8ZM12.101 16.6C14.0893 16.6 15.701 14.9882 15.701 13C15.701 11.0118 14.0893 9.4 12.101 9.4C10.1128 9.4 8.50103 11.0118 8.50103 13C8.50103 14.9882 10.1128 16.6 12.101 16.6Z" fill="#FDFDFF" stroke="#FDFDFF" stroke-width="0.5"/>
</svg>
