<svg width="18" height="16" viewBox="0 0 18 16" fill="none" xmlns="http://www.w3.org/2000/svg">
<path d="M17.5195 7.98792C17.5195 8.33948 17.207 8.61292 16.8555 8.61292H2.12891L7.59766 14.4723C7.83203 14.7067 7.83203 15.0973 7.55859 15.3317C7.44141 15.4489 7.28516 15.4879 7.12891 15.4879C6.93359 15.4879 6.77734 15.4489 6.66016 15.2926L0.175781 8.41761C-0.0585938 8.18323 -0.0585938 7.83167 0.175781 7.5973L6.66016 0.722297C6.89453 0.44886 7.28516 0.44886 7.55859 0.683235C7.83203 0.91761 7.83203 1.30823 7.59766 1.54261L2.12891 7.36292H16.8555C17.207 7.36292 17.5195 7.67542 17.5195 7.98792Z" fill="#737373"/>
</svg>
