<svg width="20" height="21" viewBox="0 0 20 21" fill="none" xmlns="http://www.w3.org/2000/svg">
<path d="M3.75 0.5C4.0625 0.5 4.375 0.8125 4.375 1.125V3.70312C5.78125 4.01562 6.875 5.26562 6.875 6.75C6.875 8.27344 5.78125 9.52344 4.375 9.83594V19.875C4.375 20.2266 4.0625 20.5 3.75 20.5C3.39844 20.5 3.125 20.2266 3.125 19.875V9.83594C1.67969 9.52344 0.625 8.27344 0.625 6.75C0.625 5.26562 1.67969 4.01562 3.125 3.70312V1.125C3.125 0.8125 3.39844 0.5 3.75 0.5ZM3.75 8.625C4.76562 8.625 5.625 7.80469 5.625 6.75C5.625 5.73438 4.76562 4.875 3.75 4.875C2.69531 4.875 1.875 5.73438 1.875 6.75C1.875 7.80469 2.69531 8.625 3.75 8.625ZM13.125 14.25C13.125 15.7734 12.0312 17.0234 10.625 17.3359V19.875C10.625 20.2266 10.3125 20.5 10 20.5C9.64844 20.5 9.375 20.2266 9.375 19.875V17.3359C7.92969 17.0234 6.875 15.7734 6.875 14.25C6.875 12.7656 7.92969 11.4766 9.375 11.2031V1.125C9.375 0.8125 9.64844 0.5 10 0.5C10.3125 0.5 10.625 0.8125 10.625 1.125V11.2031C12.0312 11.4766 13.125 12.7656 13.125 14.25ZM10 16.125C11.0156 16.125 11.875 15.3047 11.875 14.25C11.875 13.2344 11.0156 12.375 10 12.375C8.94531 12.375 8.125 13.2344 8.125 14.25C8.125 15.3047 8.94531 16.125 10 16.125ZM16.875 19.875C16.875 20.2266 16.5625 20.5 16.25 20.5C15.8984 20.5 15.625 20.2266 15.625 19.875V11.0859C14.1797 10.7734 13.125 9.52344 13.125 8C13.125 6.51562 14.1797 5.22656 15.625 4.95312V1.125C15.625 0.8125 15.8984 0.5 16.25 0.5C16.5625 0.5 16.875 0.8125 16.875 1.125V4.95312C18.2812 5.22656 19.375 6.51562 19.375 8C19.375 9.52344 18.2812 10.7734 16.875 11.0859V19.875ZM16.25 6.125C15.1953 6.125 14.375 6.98438 14.375 8C14.375 9.05469 15.1953 9.875 16.25 9.875C17.2656 9.875 18.125 9.05469 18.125 8C18.125 6.98438 17.2656 6.125 16.25 6.125Z" fill="#737373"/>
</svg>
