<svg width="15" height="15" viewBox="0 0 15 15" fill="none" xmlns="http://www.w3.org/2000/svg">
<path d="M8.4375 12.125C8.19141 12.125 8 12.3438 8 12.5625V13C8 13.4922 7.58984 13.875 7.125 13.875H2.75C2.25781 13.875 1.875 13.4922 1.875 13V6C1.875 5.53516 2.25781 5.125 2.75 5.125H5.8125C6.03125 5.125 6.25 4.93359 6.25 4.6875C6.25 4.46875 6.03125 4.25 5.8125 4.25H2.72266C1.76562 4.25 0.972656 5.04297 0.972656 6L1 13C1 13.9844 1.76562 14.75 2.75 14.75H7.125C8.08203 14.75 8.875 13.9844 8.875 13V12.5625C8.875 12.3438 8.65625 12.125 8.4375 12.125ZM14.7266 3.12891L12.6211 1.02344C12.457 0.859375 12.2383 0.75 11.9922 0.75H8.875C7.89062 0.75 7.125 1.54297 7.125 2.5V9.5C7.125 10.4844 7.89062 11.25 8.875 11.25H13.25C14.207 11.25 15 10.4844 15 9.5V3.75781C15 3.51172 14.8906 3.29297 14.7266 3.12891ZM12.375 2.00781L13.7422 3.375H12.375V2.00781ZM14.125 9.5C14.125 9.99219 13.7148 10.375 13.25 10.375H8.875C8.38281 10.375 8 9.99219 8 9.5V2.5C8 2.03516 8.38281 1.625 8.875 1.625H11.5V3.375C11.5 3.86719 11.8828 4.25 12.375 4.25H14.125V9.5Z" fill="#06040D"/>
</svg>
