<svg width="12" height="10" viewBox="0 0 12 10" fill="none" xmlns="http://www.w3.org/2000/svg">
<path d="M8.125 5.875H6.25C5.91797 5.875 5.625 6.16797 5.625 6.5C5.625 6.85156 5.91797 7.125 6.25 7.125H8.125C8.45703 7.125 8.75 6.85156 8.75 6.5C8.75 6.16797 8.45703 5.875 8.125 5.875ZM10.625 0.875H6.25C5.91797 0.875 5.625 1.16797 5.625 1.5C5.625 1.85156 5.91797 2.125 6.25 2.125H10.625C10.957 2.125 11.25 1.85156 11.25 1.5C11.25 1.16797 10.957 0.875 10.625 0.875ZM6.875 8.375H6.25C5.89844 8.375 5.625 8.66797 5.625 9C5.625 9.35156 5.89844 9.625 6.25 9.625H6.875C7.20703 9.625 7.48047 9.35156 7.48047 9C7.48047 8.66797 7.20703 8.375 6.875 8.375ZM9.375 3.375H6.25C5.91797 3.375 5.625 3.66797 5.625 4C5.625 4.35156 5.91797 4.625 6.25 4.625H9.375C9.70703 4.625 10 4.35156 10 4C10 3.66797 9.70703 3.375 9.375 3.375ZM3.75 6.71484L3.125 7.41797V1.51953C3.125 1.16797 2.83203 0.875 2.5 0.875C2.14844 0.875 1.875 1.16797 1.875 1.51953V7.41797L1.23047 6.71484C1.11328 6.57812 0.9375 6.51953 0.761719 6.51953C0.625 6.51953 0.46875 6.57812 0.351562 6.67578C0.0976562 6.91016 0.078125 7.30078 0.3125 7.57422L2.01172 9.44922C2.24609 9.70312 2.69531 9.70312 2.92969 9.44922L4.62891 7.57422C4.86328 7.30078 4.84375 6.91016 4.58984 6.67578C4.375 6.44141 3.98438 6.46094 3.75 6.71484Z" fill="#4F33A3"/>
</svg>
