<svg width="19" height="15" viewBox="0 0 19 15" fill="none" xmlns="http://www.w3.org/2000/svg">
<path d="M18.5 7.50001C18.5 7.85157 18.1875 8.12501 17.8359 8.12501H3.10938L8.57812 13.9844C8.8125 14.2188 8.8125 14.6094 8.53906 14.8438C8.42188 14.9609 8.26562 15 8.10938 15C7.91406 15 7.75781 14.9609 7.64062 14.8047L1.15625 7.92969C0.921875 7.69532 0.921875 7.34376 1.15625 7.10938L7.64062 0.234382C7.875 -0.0390552 8.26562 -0.0390552 8.53906 0.19532C8.8125 0.429695 8.8125 0.82032 8.57812 1.05469L3.10938 6.87501H17.8359C18.1875 6.87501 18.5 7.18751 18.5 7.50001Z" fill="#737373"/>
</svg>
