<svg width="96" height="96" viewBox="0 0 96 96" fill="none" xmlns="http://www.w3.org/2000/svg">
<path d="M48 0C74.4375 0 96 21.5625 96 48C96 74.625 74.4375 96 48 96C33.1875 96 20.0625 89.4375 11.25 79.125C10.6875 78.375 10.6875 77.4375 11.4375 76.875C12 76.3125 12.9375 76.5 13.5 77.0625C21.75 86.8125 34.125 93 48 93C72.75 93 93 72.9375 93 48C93 23.25 72.75 3 48 3C28.3125 3 11.625 15.5625 5.4375 33H25.5C26.25 33 27 33.75 27 34.5C27 35.4375 26.25 36 25.5 36H1.5C0.5625 36 0 35.4375 0 34.5V10.5C0 9.75 0.5625 9 1.5 9C2.25 9 3 9.75 3 10.5V31.3125C9.75 13.125 27.375 0 48 0ZM48 24C48.75 24 49.5 24.75 49.5 25.5V47.4375L65.4375 63.5625C66 64.125 66 65.0625 65.4375 65.625C64.875 66.1875 63.9375 66.1875 63.375 65.625L46.875 49.125C46.5 48.9375 46.5 48.5625 46.5 48V25.5C46.5 24.75 47.0625 24 48 24Z" fill="#4F33A3"/>
</svg>
