<svg width="10" height="11" viewBox="0 0 10 11" fill="none" xmlns="http://www.w3.org/2000/svg">
<path d="M9.96468 3.51172C10.0428 3.6875 9.98421 3.86328 9.84749 4L9.00765 4.76172C9.02718 4.91797 9.04671 5.09375 9.04671 5.25C9.04671 5.42578 9.02718 5.60156 9.00765 5.75781L9.84749 6.51953C9.98421 6.65625 10.0428 6.83203 9.96468 7.00781C9.88655 7.24219 9.7889 7.45703 9.67171 7.67188L9.57405 7.82812C9.43734 8.04297 9.30062 8.25781 9.14437 8.45312C9.02718 8.58984 8.83187 8.62891 8.65609 8.57031L7.58187 8.23828C7.30843 8.43359 7.01546 8.58984 6.72249 8.72656L6.46859 9.83984C6.42952 10.0156 6.2928 10.1523 6.11702 10.1914C5.84359 10.2305 5.57015 10.25 5.27718 10.25C5.00374 10.25 4.7303 10.2305 4.45687 10.1914C4.28109 10.1523 4.14437 10.0156 4.1053 9.83984L3.8514 8.72656C3.55843 8.58984 3.26546 8.43359 2.99202 8.23828L1.9178 8.57031C1.74202 8.62891 1.54671 8.58984 1.42952 8.45312C1.27327 8.25781 1.13655 8.04297 0.999836 7.82812L0.90218 7.67188C0.784992 7.45703 0.687336 7.24219 0.609211 7.00781C0.531086 6.83203 0.58968 6.65625 0.726398 6.51953L1.56624 5.75781C1.54671 5.60156 1.54671 5.42578 1.54671 5.25C1.54671 5.09375 1.54671 4.91797 1.56624 4.76172L0.726398 4C0.58968 3.86328 0.531086 3.6875 0.609211 3.51172C0.687336 3.27734 0.784992 3.0625 0.90218 2.84766L0.999836 2.69141C1.13655 2.47656 1.27327 2.26172 1.42952 2.06641C1.54671 1.92969 1.74202 1.89062 1.9178 1.94922L2.99202 2.28125C3.26546 2.08594 3.55843 1.91016 3.8514 1.79297L4.1053 0.679688C4.14437 0.503906 4.28109 0.367188 4.45687 0.328125C4.7303 0.289062 5.00374 0.25 5.29671 0.25C5.57015 0.25 5.84359 0.289062 6.11702 0.328125C6.2928 0.367188 6.42952 0.503906 6.46859 0.679688L6.72249 1.79297C7.01546 1.91016 7.30843 2.08594 7.58187 2.28125L8.65609 1.94922C8.83187 1.89062 9.02718 1.92969 9.14437 2.06641C9.30062 2.26172 9.43734 2.47656 9.57405 2.69141L9.67171 2.84766C9.7889 3.0625 9.88655 3.27734 9.96468 3.51172ZM5.29671 6.8125C6.15609 6.8125 6.85921 6.12891 6.85921 5.25C6.85921 4.39062 6.15609 3.6875 5.29671 3.6875C4.4178 3.6875 3.73421 4.39062 3.73421 5.25C3.73421 6.12891 4.4178 6.8125 5.29671 6.8125Z" fill="#4F33A3"/>
</svg>
