<svg width="9" height="10" viewBox="0 0 9 10" fill="none" xmlns="http://www.w3.org/2000/svg">
<path d="M2.125 3.75V2.5C2.125 1.13281 3.23828 0 4.625 0C5.99219 0 7.125 1.13281 7.125 2.5V3.75H7.75C8.43359 3.75 9 4.31641 9 5V8.75C9 9.45312 8.43359 10 7.75 10H1.5C0.796875 10 0.25 9.45312 0.25 8.75V5C0.25 4.31641 0.796875 3.75 1.5 3.75H2.125ZM3.0625 3.75H6.1875V2.5C6.1875 1.64062 5.48438 0.9375 4.625 0.9375C3.74609 0.9375 3.0625 1.64062 3.0625 2.5V3.75ZM1.1875 8.75C1.1875 8.92578 1.32422 9.0625 1.5 9.0625H7.75C7.90625 9.0625 8.0625 8.92578 8.0625 8.75V5C8.0625 4.84375 7.90625 4.6875 7.75 4.6875H1.5C1.32422 4.6875 1.1875 4.84375 1.1875 5V8.75Z" fill="#4F33A3"/>
</svg>
