<svg width="57" height="50" viewBox="0 0 57 50" fill="none" xmlns="http://www.w3.org/2000/svg">
<path d="M43.1604 15.2833C42.6108 14.9902 41.9972 14.8368 41.3739 14.8368C40.7505 14.8368 40.1369 14.9902 39.5873 15.2833L31.2527 20.1791L25.6114 23.295L17.4259 28.1907C16.8764 28.4839 16.2627 28.6373 15.6394 28.6373C15.0161 28.6373 14.4024 28.4839 13.8529 28.1907L7.45268 24.3439C6.90885 24.0243 6.45811 23.5688 6.14501 23.0223C5.8319 22.4758 5.66728 21.8573 5.66742 21.228V13.7985C5.67181 13.17 5.83836 12.5533 6.15102 12.0076C6.46368 11.4619 6.91193 11.0056 7.45268 10.6825L13.8529 6.97421C14.4024 6.68103 15.0161 6.52763 15.6394 6.52763C16.2627 6.52763 16.8764 6.68103 17.4259 6.97421L23.8261 10.821C24.3716 11.1413 24.8235 11.5984 25.1367 12.1469C25.4499 12.6954 25.6136 13.3161 25.6114 13.9472V18.8429L31.2707 15.5783V10.5235C31.2632 9.89532 31.0936 9.2796 30.7782 8.73567C30.4628 8.19174 30.0123 7.73791 29.47 7.41788L17.5623 0.444867C17.0124 0.152778 16.3988 0 15.7757 0C15.1526 0 14.5391 0.152778 13.9892 0.444867L1.78566 7.56662C1.24051 7.84376 0.784231 8.26775 0.468658 8.79043C0.153084 9.31312 -0.00914121 9.91355 0.000397702 10.5235V24.4721C0.00453785 25.1006 0.170967 25.7175 0.483652 26.2632C0.796337 26.809 1.24474 27.2652 1.78566 27.5881L13.84 34.5611C14.3899 34.8532 15.0034 35.0059 15.6265 35.0059C16.2496 35.0059 16.8632 34.8532 17.4131 34.5611L25.6114 29.8243L31.2707 26.5597L39.4381 21.8076C39.988 21.5155 40.6016 21.3627 41.2247 21.3627C41.8477 21.3627 42.4613 21.5155 43.0112 21.8076L49.4114 25.5185C49.9554 25.8379 50.4063 26.2934 50.7194 26.8399C51.0325 27.3864 51.197 28.005 51.1966 28.6344V36.0511C51.1927 36.6796 51.0264 37.2965 50.7137 37.8423C50.401 38.3881 49.9525 38.8444 49.4114 39.167L43.1604 42.8779C42.6105 43.17 41.997 43.3228 41.3739 43.3228C40.7508 43.3228 40.1372 43.17 39.5873 42.8779L33.1871 39.1696C32.6431 38.8502 32.1923 38.3947 31.8791 37.8481C31.566 37.3016 31.4015 36.683 31.4019 36.0536V31.2964L25.7426 34.5611V39.4568C25.7457 40.0871 25.9121 40.706 26.2258 41.2533C26.5395 41.8006 26.9898 42.2577 27.533 42.5804L39.5873 49.5534C40.1369 49.8466 40.7505 50 41.3739 50C41.9972 50 42.6108 49.8466 43.1604 49.5534L55.2147 42.5804C55.7587 42.261 56.2096 41.8055 56.5228 41.259C56.8359 40.7125 57.0004 40.0939 57 39.4645V25.3595C56.9961 24.7309 56.8298 24.114 56.5171 23.5682C56.2044 23.0224 55.7558 22.5662 55.2147 22.2435L43.1604 15.2833Z" fill="#4F33A3"/>
</svg>
