<svg width="13" height="14" viewBox="0 0 13 14" fill="none" xmlns="http://www.w3.org/2000/svg">
<path d="M12.8242 13.0742C12.5898 13.3086 12.1602 13.3086 11.9258 13.0742L6.76953 7.87891L1.57422 13.0742C1.33984 13.3086 0.910156 13.3086 0.675781 13.0742C0.441406 12.8398 0.441406 12.4102 0.675781 12.1758L5.87109 6.98047L0.675781 1.82422C0.441406 1.58984 0.441406 1.16016 0.675781 0.925781C0.910156 0.691406 1.33984 0.691406 1.57422 0.925781L6.76953 6.12109L11.9258 0.925781C12.1602 0.691406 12.5898 0.691406 12.8242 0.925781C13.0586 1.16016 13.0586 1.58984 12.8242 1.82422L7.62891 6.98047L12.8242 12.1758C13.0586 12.4102 13.0586 12.8398 12.8242 13.0742Z" fill="#737373"/>
</svg>
