<svg width="13" height="15" viewBox="0 0 13 15" fill="none" xmlns="http://www.w3.org/2000/svg">
<path d="M12.3438 2.9375C12.6992 2.9375 13 3.23828 13 3.59375C13 3.97656 12.6992 4.25 12.3438 4.25H12.0156L11.3594 13.1367C11.2773 14.0664 10.5391 14.75 9.60938 14.75H4.11328C3.18359 14.75 2.44531 14.0664 2.36328 13.1367L1.70703 4.25H1.40625C1.02344 4.25 0.75 3.97656 0.75 3.59375C0.75 3.23828 1.02344 2.9375 1.40625 2.9375H3.29297L4.30469 1.43359C4.57812 1.02344 5.07031 0.75 5.58984 0.75H8.13281C8.65234 0.75 9.14453 1.02344 9.41797 1.43359L10.4297 2.9375H12.3438ZM5.58984 2.0625C5.50781 2.0625 5.42578 2.11719 5.39844 2.17188L4.87891 2.9375H8.84375L8.32422 2.17188C8.29688 2.11719 8.21484 2.0625 8.13281 2.0625H5.58984ZM10.7031 4.25H3.01953L3.67578 13.0547C3.70312 13.2734 3.89453 13.4375 4.11328 13.4375H9.60938C9.82812 13.4375 10.0195 13.2734 10.0469 13.0547L10.7031 4.25Z" fill="#F04848"/>
</svg>
