<svg width="13" height="15" viewBox="0 0 13 15" fill="none" xmlns="http://www.w3.org/2000/svg">
<path d="M10.375 14.75H3.375C1.89844 14.75 0.75 13.5742 0.75 12.125V10.1562C0.75 9.80078 1.02344 9.5 1.40625 9.5C1.76172 9.5 2.0625 9.80078 2.0625 10.1562V12.125C2.0625 12.8633 2.63672 13.4375 3.375 13.4375H10.375C11.0859 13.4375 11.6875 12.8633 11.6875 12.125V10.1562C11.6875 9.80078 11.9609 9.5 12.3438 9.5C12.6992 9.5 13 9.80078 13 10.1562V12.125C13 13.5742 11.8242 14.75 10.375 14.75ZM6.38281 10.8125L2.71875 6.65625C2.55469 6.49219 2.5 6.27344 2.5 6.05469C2.5 5.91797 2.5 5.78125 2.55469 5.67188C2.71875 5.34375 3.01953 5.125 3.375 5.125H4.90625V1.84375C4.90625 1.24219 5.37109 0.75 6 0.75H7.75C8.35156 0.75 8.84375 1.24219 8.84375 1.84375V5.125H10.3477C10.7031 5.125 11.0039 5.34375 11.168 5.67188C11.3047 6 11.25 6.38281 11.0039 6.65625L7.33984 10.8125C7.23047 10.9766 7.03906 11.0312 6.875 11.0312C6.68359 11.0312 6.49219 10.9766 6.38281 10.8125ZM6.875 9.39062L9.44531 6.4375H7.53125V2.0625H6.21875V6.4375H4.27734L6.875 9.39062Z" fill="#4F33A3"/>
</svg>
