<svg width="20" height="21" viewBox="0 0 20 21" fill="none" xmlns="http://www.w3.org/2000/svg">
<path d="M10 0.5C15.5078 0.5 20 4.99219 20 10.5C20 16.0469 15.5078 20.5 10 20.5C6.71875 20.5 3.78906 18.9375 1.99219 16.5156C1.75781 16.2422 1.83594 15.8516 2.10938 15.6562C2.38281 15.4219 2.77344 15.5 2.96875 15.7734C4.57031 17.8828 7.10938 19.25 10 19.25C14.8047 19.25 18.75 15.3438 18.75 10.5C18.75 5.69531 14.8047 1.75 10 1.75C6.48438 1.75 3.47656 3.82031 2.07031 6.75H5.625C5.9375 6.75 6.25 7.0625 6.25 7.375C6.25 7.72656 5.9375 8 5.625 8H0.625C0.273438 8 0 7.72656 0 7.375V2.375C0 2.0625 0.273438 1.75 0.625 1.75C0.9375 1.75 1.25 2.0625 1.25 2.375V5.65625C2.92969 2.60938 6.21094 0.5 10 0.5ZM10 5.5C10.3125 5.5 10.625 5.8125 10.625 6.125V10.2656L13.5547 13.1953C13.7891 13.4297 13.7891 13.8594 13.5547 14.0938C13.3203 14.3281 12.8906 14.3281 12.6562 14.0938L9.53125 10.9688C9.41406 10.8516 9.33594 10.6953 9.33594 10.5V6.125C9.33594 5.8125 9.64844 5.5 9.96094 5.5H10Z" fill="#737373"/>
</svg>
